<svg id="Lager_1" version="1.2" baseProfile="tiny" xmlns="http://www.w3.org/2000/svg" viewBox="0 0 1417.323 1417.323">
  <title>Northern Lines Logo</title>
  <path d="M1318.333,477.962a4.889,4.889,0,0,0-8.109-1.9c-51.483,50.85-235.355,226.9-313.116,327.287-65.977,85.173-88.2,161.322,5.469,240.106,42.105,30.728,90.165,49.068,106.245,103.808,5.048,16.973,5.711,39.157,2.513,63.554a4.879,4.879,0,0,0,7.9,4.437A655.615,655.615,0,0,0,1240.9,1085.475c8.125-11.453,7.6-27.031.786-39.329-10.436-17.387-33.607-34.178-61.138-49.963C950.11,870.1,1181.65,705.372,1336.519,541.7,1341.692,536.539,1318.333,477.962,1318.333,477.962Zm-80.155-149.753c3.45,2.088-11.337,13.256-12.844,15.678-13.776,13.664-26.226,26.037-40.412,40.131C1033.1,535.145,869.962,697.96,717.512,853.457c-92.881,83.59-111.361,176.6-42.109,250.831,58.282,77.661-35.614,112.723-121.9,187.542-14.436,11.31-28.817,22.644-42.924,34.278h-.02a7.834,7.834,0,0,1-7.465,1.418c-60.609-21.236-121.336-48.773-170.818-87.508a14.115,14.115,0,0,1-4.132-16.88c5.089-11.354,14.362-20.744,24.1-28.411,28.664-21.875,62.993-34.775,95.25-50.25,20.316-10.131,42.42-19.664,56.931-37.549,21.552-37.913-24.366-66.651,26.3-139.769,104.528-140.3,501.035-504.024,668.08-681.582,1.4-1.149,1.885-3.013,4.547-1.75ZM634.9,1021.519c9.93,84.43,75.84,78.2,55.18,148.85C707.376,1099.179,644.646,1105.919,634.9,1021.519Zm524.39-611.99c1.91-1.9,3.789-3.78,5.65-5.62Q1162.145,406.684,1159.286,409.529Zm7.46-7.42,7.05-7.02C1171.5,397.389,1169.136,399.729,1166.746,402.109Zm-288.2,454.5c-117.709,174.32,85.164,215.315,97,345.754.068.75.1,1.5.091,2.253-.139,18.962-2.158,46.584-13.285,73.678a91.327,91.327,0,0,1-57.126,52.219,650.867,650.867,0,0,1-196.433,30.123c-15.491,0-27.829-.538-42.873-1.6-5.023-.78-6.508-6.088,1.253-11.616,419.994-294.527-150.847-201.143,183.21-560.184,28.31-30.427,58.371-57.235,104.266-104.809,88.881-92.132,275.079-268.225,308.719-301.933a5.785,5.785,0,0,1,9.173,1.311c4.872,8.9,13.322,24.334,17.774,32.466a8.328,8.328,0,0,1-1.258,9.821c-109.571,111.731-247.037,245.958-333.981,336.593-43.663,45.516-69.3,83.045-75.529,94.31C879.239,855.548,878.905,856.086,878.55,856.611ZM1353.715,804.9a647.234,647.234,0,0,1-33.266,129.977,7.286,7.286,0,0,1-1.353,2.353c-3.735,4.179-8.08-2.286-14.954-5.218-209.622-104.256-74.914-213.966,41.412-330.394C1358.1,590.128,1359.64,675.2,1360.5,698.1a14.2,14.2,0,0,1-2.646,8.831c-11.544,16.077-30.009,31.125-29.04,52.729.067,14.6,8.424,26.5,20.506,34.853A10.7,10.7,0,0,1,1353.715,804.9ZM1168.339,245.874,245.883,1168.331a643.29,643.29,0,0,1-72.12-86.416C-3.779,827.547,20.749,474.906,247.83,247.823c226.109-226.107,576.636-251.608,830.684-76.5,8.284,5.522,16.406,11.532,24.365,17.542A674.342,674.342,0,0,1,1168.339,245.874Z"/>
</svg>
